<svg width="232" height="232" viewBox="0 0 232 232" fill="none" xmlns="http://www.w3.org/2000/svg">
<g filter="url(#filter0_d_41_57)">
<path d="M54.3513 107.359C48.7963 100.331 53.207 89.9398 62.1218 89.0533C68.7346 88.3958 73.3654 82.216 72.1396 75.6846C70.4872 66.8797 79.2216 59.7286 87.5272 63.0866C93.6881 65.5775 100.66 62.2577 102.61 55.9048C105.239 47.3404 116.296 45.0676 122.09 51.9007C126.388 56.9694 134.104 57.27 138.783 52.551C145.091 46.1892 155.937 49.3153 157.892 58.0582C159.342 64.5435 166.035 68.3957 172.371 66.3916C180.912 63.6899 189.064 71.4987 186.732 80.1484C185.002 86.5647 189.138 93.086 195.679 94.2559C204.498 95.8331 208.087 106.536 202.002 113.111C197.488 117.988 198.12 125.685 203.369 129.761C210.444 135.255 208.648 146.4 200.205 149.394C193.942 151.615 190.924 158.724 193.678 164.772C197.389 172.925 190.62 181.959 181.752 180.686C175.174 179.742 169.199 184.634 168.826 191.269C168.323 200.214 158.131 205.066 150.871 199.818C145.485 195.926 137.921 197.48 134.507 203.182C129.905 210.868 118.625 210.429 114.635 202.408C111.675 196.458 104.255 194.319 98.5829 197.782C90.9361 202.449 81.1525 196.818 81.3471 187.861C81.4914 181.217 75.9149 175.876 69.2834 176.305C60.3434 176.884 54.2973 167.351 58.632 159.511C61.8473 153.695 59.3921 146.374 53.3205 143.672C45.1355 140.031 44.2121 128.78 51.6937 123.852C57.2435 120.197 58.472 112.573 54.3513 107.359Z" fill="url(#paint0_linear_41_57)"/>
</g>
<defs>
<filter id="filter0_d_41_57" x="0.56058" y="0.647534" width="231.421" height="231.063" filterUnits="userSpaceOnUse" color-interpolation-filters="sRGB">
<feFlood flood-opacity="0" result="BackgroundImageFix"/>
<feColorMatrix in="SourceAlpha" type="matrix" values="0 0 0 0 0 0 0 0 0 0 0 0 0 0 0 0 0 0 127 0" result="hardAlpha"/>
<feOffset dx="-10.9025" dy="-12.1139"/>
<feGaussianBlur stdDeviation="17.5651"/>
<feComposite in2="hardAlpha" operator="out"/>
<feColorMatrix type="matrix" values="0 0 0 0 0.00517701 0 0 0 0 0.0123699 0 0 0 0 0.00870292 0 0 0 0.37 0"/>
<feBlend mode="normal" in2="BackgroundImageFix" result="effect1_dropShadow_41_57"/>
<feBlend mode="normal" in="SourceGraphic" in2="effect1_dropShadow_41_57" result="shape"/>
</filter>
<linearGradient id="paint0_linear_41_57" x1="190.502" y1="52.8584" x2="141.383" y2="186.352" gradientUnits="userSpaceOnUse">
<stop stop-color="#237249"/>
<stop offset="1" stop-color="#35C66B"/>
</linearGradient>
</defs>
</svg>
