<svg width="232" height="232" viewBox="0 0 232 232" fill="none" xmlns="http://www.w3.org/2000/svg">
<g filter="url(#filter0_d_20_3)">
<path d="M54.3513 107.252C48.7963 100.224 53.207 89.8329 62.1218 88.9465C68.7346 88.289 73.3654 82.1092 72.1396 75.5778C70.4872 66.7729 79.2216 59.6218 87.5272 62.9798C93.6881 65.4707 100.66 62.1509 102.61 55.7979C105.239 47.2336 116.296 44.9608 122.09 51.7939C126.388 56.8626 134.104 57.1632 138.783 52.4442C145.091 46.0824 155.937 49.2085 157.892 57.9514C159.342 64.4367 166.035 68.2889 172.371 66.2848C180.912 63.5831 189.064 71.3919 186.732 80.0416C185.002 86.4579 189.138 92.9791 195.679 94.1491C204.498 95.7263 208.087 106.429 202.002 113.004C197.488 117.881 198.12 125.578 203.369 129.654C210.444 135.149 208.648 146.293 200.205 149.287C193.942 151.508 190.924 158.617 193.678 164.665C197.389 172.819 190.62 181.852 181.752 180.579C175.174 179.635 169.199 184.527 168.826 191.162C168.323 200.107 158.131 204.96 150.871 199.712C145.485 195.819 137.921 197.374 134.507 203.075C129.905 210.762 118.625 210.322 114.635 202.301C111.675 196.351 104.255 194.213 98.5829 197.675C90.9361 202.342 81.1525 196.711 81.3471 187.755C81.4914 181.111 75.9149 175.769 69.2834 176.198C60.3434 176.777 54.2973 167.245 58.632 159.404C61.8473 153.589 59.3921 146.267 53.3205 143.566C45.1355 139.924 44.2121 128.673 51.6937 123.745C57.2435 120.09 58.472 112.466 54.3513 107.252Z" fill="url(#paint0_linear_20_3)"/>
</g>
<defs>
<filter id="filter0_d_20_3" x="0.56058" y="0.540845" width="231.421" height="231.063" filterUnits="userSpaceOnUse" color-interpolation-filters="sRGB">
<feFlood flood-opacity="0" result="BackgroundImageFix"/>
<feColorMatrix in="SourceAlpha" type="matrix" values="0 0 0 0 0 0 0 0 0 0 0 0 0 0 0 0 0 0 127 0" result="hardAlpha"/>
<feOffset dx="-10.9025" dy="-12.1139"/>
<feGaussianBlur stdDeviation="17.5651"/>
<feComposite in2="hardAlpha" operator="out"/>
<feColorMatrix type="matrix" values="0 0 0 0 0.00517701 0 0 0 0 0.0123699 0 0 0 0 0.00870292 0 0 0 0.37 0"/>
<feBlend mode="normal" in2="BackgroundImageFix" result="effect1_dropShadow_20_3"/>
<feBlend mode="normal" in="SourceGraphic" in2="effect1_dropShadow_20_3" result="shape"/>
</filter>
<linearGradient id="paint0_linear_20_3" x1="190.502" y1="52.7516" x2="141.383" y2="186.245" gradientUnits="userSpaceOnUse">
<stop stop-color="#237249"/>
<stop offset="1" stop-color="#35C66B"/>
</linearGradient>
</defs>
</svg>
